<svg width="45" height="45" viewBox="0 0 45 45" fill="none" xmlns="http://www.w3.org/2000/svg">
<g id="Clipboard">
<path id="Icon" d="M30 7.5H33.75C34.7446 7.5 35.6984 7.89509 36.4016 8.59835C37.1049 9.30161 37.5 10.2554 37.5 11.25V37.5C37.5 38.4946 37.1049 39.4484 36.4016 40.1516C35.6984 40.8549 34.7446 41.25 33.75 41.25H11.25C10.2554 41.25 9.30161 40.8549 8.59835 40.1516C7.89509 39.4484 7.5 38.4946 7.5 37.5V11.25C7.5 10.2554 7.89509 9.30161 8.59835 8.59835C9.30161 7.89509 10.2554 7.5 11.25 7.5H15M16.875 3.75H28.125C29.1605 3.75 30 4.58947 30 5.625V9.375C30 10.4105 29.1605 11.25 28.125 11.25H16.875C15.8395 11.25 15 10.4105 15 9.375V5.625C15 4.58947 15.8395 3.75 16.875 3.75Z" stroke="#1E1E1E" stroke-width="4" stroke-linecap="round" stroke-linejoin="round"/>
</g>
</svg>
